
<svg width="294px" height="205px" viewBox="0 0 294 205" version="1.1" xmlns="http://www.w3.org/2000/svg" xmlns:xlink="http://www.w3.org/1999/xlink">
    <g id="KR" stroke="none" stroke-width="1" fill="none" fill-rule="evenodd">
        <polygon id="Path-2" stroke="#979797" stroke-width="7"  points="4 8 4 201 36.6976402 201 36.6976402 106.921281 95.4857261 201 136 201 76.8696933 104.5 136 8 95.4857261 8 42.2042837 94.6407463 42.2042837 8"></polygon>
        <polygon id="Path-3" stroke="#979797" stroke-width="6" style="mix-blend-mode: darken;" points="158 8.22696621 158 200 194.275224 200 194.275224 118.79733 212.84325 118.79733 218.796173 124.329357 227.034271 134.247241 234.499956 152.712671 239.875754 164.314723 242.780804 174.987948 245.772324 184.73722 249.002856 192.611294 253.263271 198.1979 254.738142 200 290 200 284.233623 174.987948 274.489563 154.407561 265.66754 130.281452 245.772324 109.075349 267.049139 94.851529 275.505844 81.9999951 279.369851 73.389097 279.369851 40.2261746 264.391845 17.9216582 245.772324 6.62369204 235.615339 3 158 3"></polygon>
        <polygon id="Path-4" stroke="#979797" stroke-width="6" style="mix-blend-mode: darken;" points="192 33 192 89 223.125036 89 232.455369 82.9333414 239 73.9865616 239 47.6501712 233.615201 41.2954041 225.517429 36.4389938 221.212078 33"></polygon>
    </g>
</svg>
